HIERARCHY
ROOT reference
{
  OFFSET 0 0 0
  CHANNELS 6 Xposition Yposition Zposition Zrotation Xrotation Yrotation
  JOINT Hips
  {
    OFFSET 0 97.8064 0
    CHANNELS 6 Xposition Yposition Zposition Zrotation Xrotation Yrotation
    JOINT ToSpine
    {
      OFFSET -2.69724 7.43032 -0.144315
      CHANNELS 6 Xposition Yposition Zposition Zrotation Xrotation Yrotation
      JOINT Spine
      {
        OFFSET -0.0310711 10.7595 1.96963
        CHANNELS 6 Xposition Yposition Zposition Zrotation Xrotation Yrotation
        JOINT Spine1
        {
          OFFSET 13.1342 3.43533 0.764692
          CHANNELS 6 Xposition Yposition Zposition Zrotation Xrotation Yrotation
          JOINT Neck
          {
            OFFSET 29.8703 7.82586 -0.130764
            CHANNELS 6 Xposition Yposition Zposition Zrotation Xrotation Yrotation
            JOINT Head
            {
              OFFSET 9.52751 0.295786 -0.907742
              CHANNELS 6 Xposition Yposition Zposition Zrotation Xrotation Yrotation
              End Site
              {
                OFFSET 16.4037 0.713936 2.7358
              }
            }
          }
          JOINT LeftShoulder
          {
            OFFSET 27.5574 4.95586 2.47156
            CHANNELS 6 Xposition Yposition Zposition Zrotation Xrotation Yrotation
            JOINT LeftArm
            {
              OFFSET 1.20734 -0.998971 20.1238
              CHANNELS 6 Xposition Yposition Zposition Zrotation Xrotation Yrotation
              JOINT LeftForeArm
              {
                OFFSET 26.8049 -0.0536703 -0.155908
                CHANNELS 6 Xposition Yposition Zposition Zrotation Xrotation Yrotation
                JOINT LeftHand
                {
                  OFFSET 26.6817 0 0.320147
                  CHANNELS 6 Xposition Yposition Zposition Zrotation Xrotation Yrotation
                  End Site
                  {
                    OFFSET 18.6119 0 0.382219
                  }
                }
              }
            }
          }
          JOINT RightShoulder
          {
            OFFSET 27.5927 4.71444 -2.65209
            CHANNELS 6 Xposition Yposition Zposition Zrotation Xrotation Yrotation
            JOINT RightArm
            {
              OFFSET 2.83739 -1.17114 -18.7564
              CHANNELS 6 Xposition Yposition Zposition Zrotation Xrotation Yrotation
              JOINT RightForeArm
              {
                OFFSET 28.839 -0.0548439 1.22491
                CHANNELS 6 Xposition Yposition Zposition Zrotation Xrotation Yrotation
                JOINT RightHand
                {
                  OFFSET 26.5114 0 -0.101894
                  CHANNELS 6 Xposition Yposition Zposition Zrotation Xrotation Yrotation
                  End Site
                  {
                    OFFSET 18.2168 0 0
                  }
                }
              }
            }
          }
        }
      }
    }
    JOINT LeftUpLeg
    {
      OFFSET -4.76168 -1.9167 -10.2353
      CHANNELS 6 Xposition Yposition Zposition Zrotation Xrotation Yrotation
      JOINT LeftLeg
      {
        OFFSET 2.55951 -42.0585 -8.02213
        CHANNELS 6 Xposition Yposition Zposition Zrotation Xrotation Yrotation
        JOINT LeftFoot
        {
          OFFSET 3.16357 -42.5282 -3.95426
          CHANNELS 6 Xposition Yposition Zposition Zrotation Xrotation Yrotation
          JOINT LeftToeBase
          {
            OFFSET 0.346054 -6.02161 12.8035
            CHANNELS 6 Xposition Yposition Zposition Zrotation Xrotation Yrotation
            End Site
            {
              OFFSET 0.134235 -1.35082 5.13018
            }
          }
        }
      }
    }
    JOINT RightUpLeg
    {
      OFFSET -4.94151 -1.41743 10.6446
      CHANNELS 6 Xposition Yposition Zposition Zrotation Xrotation Yrotation
      JOINT RightLeg
      {
        OFFSET -2.56294 -42.0364 -7.94377
        CHANNELS 6 Xposition Yposition Zposition Zrotation Xrotation Yrotation
        JOINT RightFoot
        {
          OFFSET -3.0952 -42.555 -4.02241
          CHANNELS 6 Xposition Yposition Zposition Zrotation Xrotation Yrotation
          JOINT RightToeBase
          {
            OFFSET -0.0828122 -6.13587 12.8035
            CHANNELS 6 Xposition Yposition Zposition Zrotation Xrotation Yrotation
            End Site
            {
              OFFSET -0.131328 -1.35082 5.13018
            }
          }
        }
      }
    }
  }
}
MOTION
Frames:	5
Frame Time:	0.0333333
0 0 0 0 0 -0 11.1851 88.955 -5.62693 53.0848 -41.4127 -5.5121 -2.69724 7.43032 -0.144315 -70.1915 -2.38542e-015 88.8779 -0.0310711 10.7595 1.96963 94.6322 72.3234 -28.177 13.1342 3.43533 0.764692 1.42716 22.7231 -0.45782 29.8703 7.82586 -0.130764 -130.651 26.6487 153.638 9.52751 0.295786 -0.907742 145.837 64.1655 -122.966 27.5574 4.95586 2.47156 -0.0419795 -19.7241 -20.9616 1.20734 -0.998971 20.1238 -60.5354 17.7642 -163.38 26.8049 -0.0536703 -0.155908 28.2893 -1.11397 -91.3679 26.6817 -2.84217e-014 0.320147 0 3.18055e-015 -0 27.5927 4.71444 -2.65209 -2.96627 8.46112 49.0537 2.83739 -1.17114 -18.7564 -118.183 -11.6306 72.1663 28.839 -0.0548439 1.22491 14.6727 -10.7433 54.5437 26.5114 1.42109e-014 -0.101894 -1.09971e-012 -4.76474e-009 -0.0296889 -4.76168 -1.9167 -10.2353 -15.9391 29.0143 80.8665 2.55951 -42.0585 -8.02213 -8.45278 66.9897 -1.95003 3.16357 -42.5282 -3.95426 0.200546 -20.1032 -1.70184 0.346054 -6.02161 12.8035 4.17049 -11.2917 13.5404 -4.94151 -1.41743 10.6446 -26.3761 -3.94644 57.881 -2.56294 -42.0364 -7.94377 4.6247 31.8189 18.137 -3.0952 -42.555 -4.02241 0.56375 9.13884 -0.669969 -0.0828122 -6.13587 12.8035 -0.806367 -3.75086 9.39269 
0 0 0 0 0 -0 11.4004 89.2484 -5.45658 53.5621 -41.3473 -6.26164 -2.69724 7.43032 -0.144315 -70.1915 -3.18055e-015 88.8779 -0.0310711 10.7595 1.96963 92.5246 72.3678 -25.7886 13.1342 3.43533 0.764692 1.44936 22.4602 -0.041791 29.8703 7.82586 -0.130764 -129.692 26.5843 155.074 9.52751 0.295786 -0.907742 145.25 63.4502 -121.649 27.5574 4.95586 2.47156 -0.0443793 -19.435 -21.3849 1.20734 -0.998971 20.1238 -61.3378 19.368 -161.596 26.8049 -0.0536703 -0.155908 28.0631 -1.39505 -91.9163 26.6817 -2.84217e-014 0.320147 6.36111e-015 0 -0 27.5927 4.71444 -2.65209 -2.93743 8.58034 48.2551 2.83739 -1.17114 -18.7564 -119.263 -11.8534 71.9862 28.839 -0.0548439 1.22491 15.6108 -10.1521 57.7263 26.5114 2.84217e-014 -0.101894 -1.10448e-012 -4.76474e-009 -0.0296889 -4.76168 -1.9167 -10.2353 -17.7577 28.6684 82.4656 2.55951 -42.0585 -8.02213 -7.9747 65.9589 -2.431 3.16357 -42.5282 -3.95426 0.330938 -19.7313 -1.66489 0.346054 -6.02161 12.8035 4.37174 -11.57 13.2481 -4.94151 -1.41743 10.6446 -26.9323 -4.19243 59.6916 -2.56294 -42.0364 -7.94377 4.87602 31.3311 17.5945 -3.0952 -42.555 -4.02241 0.743773 9.26494 -0.717663 -0.0828122 -6.13587 12.8035 -0.558351 -4.56441 8.74047 
0 0 0 0 0 -0 11.7209 89.6156 -5.2717 54.62 -41.0619 -6.77663 -2.69724 7.43032 -0.144315 -70.1915 -2.38542e-015 88.8779 -0.0310711 10.7595 1.96963 91.2147 72.1301 -24.1502 13.1342 3.43533 0.764692 1.37398 21.9812 0.245763 29.8703 7.82586 -0.130764 -128.238 26.431 155.6 9.52751 0.295786 -0.907742 145.714 63.3668 -121.136 27.5574 4.95586 2.47156 -0.00502226 -19.0362 -21.4942 1.20734 -0.998971 20.1238 -62.1255 21.1184 -159.599 26.8049 -0.0536703 -0.155908 27.012 -1.70421 -92.6263 26.6817 -2.84217e-014 0.320147 0 3.18055e-015 -0 27.5927 4.71444 -2.65209 -2.9241 8.57752 48.0997 2.83739 -1.17114 -18.7564 -119.863 -11.7504 72.5827 28.839 -0.0548439 1.22491 16.3122 -9.35537 60.9032 26.5114 2.84217e-014 -0.101894 -1.10607e-012 -4.76474e-009 -0.0296889 -4.76168 -1.9167 -10.2353 -20.4262 28.0046 84.5468 2.55951 -42.0585 -8.02213 -7.36157 64.5015 -3.08932 3.16357 -42.5282 -3.95426 -0.0680501 -19.702 -1.68122 0.346054 -6.02161 12.8035 4.26803 -11.3998 13.2035 -4.94151 -1.41743 10.6446 -27.8948 -4.81667 61.6083 -2.56294 -42.0364 -7.94377 5.06803 30.971 16.1279 -3.0952 -42.555 -4.02241 1.00435 8.96806 -0.747793 -0.0828122 -6.13587 12.8035 -0.753996 -4.29024 9.82683 
0 0 0 0 0 -0 12.0871 90.0904 -5.03263 55.8848 -40.8563 -7.45373 -2.69724 7.43032 -0.144315 -70.1915 -3.18055e-015 88.8779 -0.0310711 10.7595 1.96963 90.0178 72.1355 -22.5959 13.1342 3.43533 0.764692 1.19973 21.9392 0.0702936 29.8703 7.82586 -0.130764 -125.339 25.4192 153.198 9.52751 0.295786 -0.907742 150.11 64.835 -123.574 27.5574 4.95586 2.47156 0.0625923 -18.7665 -21.0403 1.20734 -0.998971 20.1238 -62.7117 23.0102 -158.047 26.8049 -0.0536703 -0.155908 26.7741 -2.22007 -93.6824 26.6817 -4.26326e-014 0.320147 -7.06225e-031 -3.18055e-015 -1.27222e-014 27.5927 4.71444 -2.65209 -2.80512 7.95973 49.2765 2.83739 -1.17114 -18.7564 -120.514 -10.1878 74.1243 28.839 -0.0548439 1.22491 16.8943 -8.62909 63.648 26.5114 4.26326e-014 -0.101894 -1.10607e-012 -4.76474e-009 -0.0296889 -4.76168 -1.9167 -10.2353 -23.5816 27.2409 86.9683 2.55951 -42.0585 -8.02213 -6.72806 62.7131 -3.85623 3.16357 -42.5282 -3.95426 0.237735 -19.1548 -1.6227 0.346054 -6.02161 12.8035 4.43436 -11.6096 12.7958 -4.94151 -1.41743 10.6446 -29.0839 -5.21487 64.4227 -2.56294 -42.0364 -7.94377 5.23224 30.2803 14.1582 -3.0952 -42.555 -4.02241 0.788329 8.59261 -0.671363 -0.0828122 -6.13587 12.8035 -0.959783 -3.79705 10.6078 
0 0 0 0 0 -0 12.4671 90.6208 -4.7621 57.3569 -40.8358 -7.89378 -2.69724 7.43032 -0.144315 -70.1915 -1.59028e-015 88.8779 -0.0310711 10.7595 1.96963 87.9972 72.0827 -20.0897 13.1342 3.43533 0.764692 1.57448 21.5699 0.563855 29.8703 7.82586 -0.130764 -124.036 24.716 153.334 9.52751 0.295786 -0.907742 152.958 65.0445 -125.344 27.5574 4.95586 2.47156 0.108531 -18.3014 -21.1542 1.20734 -0.998971 20.1238 -64.4642 24.2656 -155.797 26.8049 -0.0536703 -0.155908 26.3581 -2.49567 -94.3073 26.6817 -4.26326e-014 0.320147 -3.18055e-015 -6.36111e-015 -0 27.5927 4.71444 -2.65209 -2.74666 7.97814 48.4992 2.83739 -1.17114 -18.7564 -122.008 -10.4105 74.9278 28.839 -0.0548439 1.22491 18.4635 -8.33312 66.4508 26.5114 1.42109e-014 -0.101894 -1.10607e-012 -4.76474e-009 -0.0296889 -4.76168 -1.9167 -10.2353 -27.0712 26.5149 89.1951 2.55951 -42.0585 -8.02213 -6.06326 60.5499 -4.558 3.16357 -42.5282 -3.95426 0.524513 -18.6397 -1.56981 0.346054 -6.02161 12.8035 4.37636 -11.4808 12.5073 -4.94151 -1.41743 10.6446 -30.6509 -5.15414 67.8654 -2.56294 -42.0364 -7.94377 5.39647 29.0845 11.4533 -3.0952 -42.555 -4.02241 1.38723 8.0419 -0.745739 -0.0828122 -6.13587 12.8035 -1.36442 -2.72868 11.7882 
